<?xml version="1.0" encoding="utf-8"?>
<!-- Generator: Adobe Illustrator 21.1.0, SVG Export Plug-In . SVG Version: 6.00 Build 0)  -->
<svg version="1.1" id="Layer_1" xmlns="http://www.w3.org/2000/svg" xmlns:xlink="http://www.w3.org/1999/xlink" x="0px" y="0px"
	 viewBox="0 0 369.9 161.9" style="enable-background:new 0 0 369.9 161.9;" xml:space="preserve">
<style type="text/css">
	.st0{fill:#A7A9AC;}
	.st1{fill:#1A1B1B;}
	.st2{fill:#010102;}
	.st3{fill:#626667;}
	.st4{fill:#883426;}
	.st5{fill:#FFFFFF;}
</style>
<g id="XMLID_475_">
	<path id="XMLID_784_" class="st0" d="M291,0L291,0L291,0H76.9v0C34.2,1.1,0,36.9,0,80.9c0,44.7,35.3,80.9,78.9,80.9
		c18.6,0,35.7-6.6,49.2-17.7h113.7c13.5,11,30.6,17.7,49.2,17.7c43.6,0,78.9-36.2,78.9-80.9C369.9,36.2,334.5,0,291,0z"/>
	<g id="XMLID_760_">
		<path id="XMLID_773_" class="st1" d="M95.5,98.6c0-0.4,0.3-1-0.5-1.1c-0.7-0.1-1,0.3-1.3,0.8c-0.1,0.2,0.1,0.6-0.3,0.7
			c-0.2,0-0.2,0.1-0.3,0.3c-0.1,0.5-0.2,1-0.2,1.5c0,0.4-0.2,0.8-0.3,1.1c-0.3,0.9-0.7,1.7-0.6,2.7c0,0.1,0,0.2,0.1,0.3
			c-0.1,0.2-0.3,0.4-0.4,0.5c-0.6,0.2-0.8,0.8-1.1,1.3c-0.1,0.3-0.3,0.6-0.2,0.9c-0.7,0.4-1.1,1.2-1.6,1.8c-0.2,0.3-0.5,0.7-0.8,1
			c-1.1,1.5-2.1,3.2-2.9,4.9c-0.5,1-0.8,1.2-1.8,0.3c-1.1-1-2.2-2.3-4-2c0-0.1,0-0.2,0-0.2c-0.1-0.1-0.3-0.2-0.5-0.1c0,0,0,0,0,0
			c-0.3-0.3-0.8-0.3-1.2-0.3c0,0,0,0,0,0c0-0.1,0-0.2-0.1-0.3c-0.6-0.2-1.2-0.4-1.8-0.6c-0.3-0.1-0.6-0.2-1-0.4c0,0,0-0.1,0-0.1
			c-1-1.2-2.6-1.7-3.8-2.8c-0.2-0.2-0.5-0.2-0.7-0.1c-0.2-0.1-0.4-0.3-0.6-0.4c0-0.1,0-0.2,0-0.3c-0.3-0.5-0.6-0.9-1.1-0.7
			c-0.1-0.2-0.3-0.2-0.4-0.3c-0.1,0-0.2,0-0.3,0l0,0v0c-0.1-0.1-0.2-0.1-0.3-0.1c-0.5-0.6-1.3-0.1-1.8-0.4c-0.1,0.1-0.1,0.1-0.2,0.2
			c0,0,0,0-0.1,0c-0.4,0-0.7,0-1,0.4c0,0.1,0,0.1,0,0.2c-0.1,0-0.2,0-0.3,0c-0.1,0.1-0.2,0.3-0.4,0.4c-0.6,0.2-1.1,0.5-1.4,1.1
			c-0.1,0.1-0.2,0.2-0.3,0.3c-0.1,0-0.1,0-0.2,0c-0.2,0-0.3,0.1-0.5,0.1c-0.7,0.4-1.4,1-1.9,1.7l0,0.1c-0.4,0.2-0.8,0.4-1.2,0.6h0h0
			c-0.3,0.1-0.7,0.3-1,0.4h0c-0.5,0-0.9,0.5-1.4,0.3c-0.3-0.1-0.4,0.1-0.4,0.4c-0.2,0-0.4,0.1-0.6,0.2c-0.2,0-0.3,0-0.5,0.1
			c-0.1,0.1-0.2,0.2-0.3,0.3c0,0-0.1,0-0.1,0c-0.5-0.2-1,0.1-1.5,0.3c-0.4,0.2-0.9,0.5-1.3,0.7c-0.3,0.2-0.6,0.4-0.9,0.6
			c-0.6,0.4-1.1,1.3-1.8,1.4c-1.1,0.2-0.9-1.2-1.5-1.7c-0.2-0.1-0.4-0.3-0.6-0.3c-0.1-0.2-0.2-0.3-0.3-0.5c0-0.1,0-0.2,0-0.4
			c-0.5-0.6-0.1-2-1.4-1.8c0,0,0-0.1,0-0.1c0-0.2,0-0.3-0.1-0.5c-0.2-0.2-0.4-0.4-0.6-0.6v0l0,0c-0.7-1.2-1.4-2.3-2.5-3.2
			c-0.1-0.3,0-0.6-0.4-0.7v0c0-0.4-0.1-0.8-0.4-1.1v0c0-0.3,0-0.6-0.3-0.7h0l0,0c-0.6-2.1-1.2-4.2-1.8-6.3c-0.1-0.6-0.4-0.8-0.9-0.8
			c-0.8,0-0.6,0.6-0.6,1c0,1.3,0,2.6,0,3.9c0.1,1.6,0.3,3.1,0.4,4.7c-0.1,0.6-0.2,1.3,0.3,1.8c0.3,0.7-0.3,1.5,0.5,2.1
			c0.2,0.7,0.3,1.5,0.5,2.2l0,0h0c1.4,5.2,3,10.4,7.3,14.1c0.2,0.3,0.5,0.5,0.7,0.8c2.5,3.2,4.6,6.7,8.1,9.1
			c9.2,6.3,22.2,3.4,28.8-6.3c0.7-0.9,1.5-1.9,2.2-2.8c0.2-0.3,0.5-0.5,0.7-0.8c3.9-3.3,5.5-7.9,6.9-12.6c0.4-0.3,0.3-0.7,0.3-1.1
			c0.6-1.1,0.8-2.3,0.8-3.6c0.3-0.3,0.4-0.7,0.3-1.1h0l0,0C95.4,105.6,95.5,102.1,95.5,98.6z M75.3,127.9c-2.9,0.5-2.9,0.6-3.6-2.3
			c-0.3-1.3-1.2-1.9-2.5-1.9c-2,0-4,0-6,0c-1.5,0-2.3,0.7-2.6,2.2c-0.4,2.4-1.2,2.8-3.5,1.9c-1.5-0.6-2.5-1.6-3.1-3.1
			c-0.3-0.9-0.3-1.8-0.7-2.6c-0.1-0.1-0.2-0.2-0.2-0.2c0,0,0,0,0-0.1c0-0.1,0-0.2-0.1-0.2c0.1,0,0.2-0.1,0.2-0.1
			c0.1-0.2,0.2-0.4,0.2-0.7c0-2.6,1.4-4,3.9-4.5c1.1-0.2,2.4-0.3,3-1.5c0.4-0.1,0.7-0.1,1-0.4c1.4-0.2,2.7-0.5,3.9-1.1l0,0v0
			c0.4,0,0.7,0,1.1-0.1v0l0,0l0.1,0.1l0.2,0c0.3,0.4,0.8,0.3,1.2,0.3v0l0,0c0.4,0.3,0.9,0.5,1.4,0.4c0.1,0.1,0.3,0.1,0.4,0.2
			c0,0,0,0,0,0c0.4,0.7,1.1,0.9,1.8,1.1c1.5,0.5,2.9,1,4.4,1.4c1.1,0.3,2,0.9,2.3,2c0.6,2.9,0.7,5.8-1.5,8.2
			c-0.2,0.2-0.5,0.5-0.6,0.8c0,0-0.1,0-0.1,0C75.9,127.8,75.6,127.8,75.3,127.9z"/>
		<path id="XMLID_772_" class="st2" d="M56,21.4c2.8-1.9,5.7-3.6,8.9-5c3.3-1.4,6.7-2.6,10.2-3.2c0.1,0,0.2,0,0.4,0
			c-0.3,1.1-0.7,2.1-1.2,3.1c-1.4,2.4-1.8,5.1-2.1,7.9c0,0.4-0.2,0.9-0.1,1.5c4.6-3.3,9.3-6.4,15.2-7.4c-1.5,4.1-2.9,8.1-2.4,12.5
			c0.5-0.3,0.9-0.8,1.1-1.4c0.8-2.2,2.6-3.5,4.5-4.7c0.3-0.2,0.4-0.1,0.5,0.2c0.4,1.2,0.7,2.5,1,3.7c0.8,3.1,2.4,5.8,4.3,8.3
			c2.1,2.6,3.9,5.3,5.1,8.5c1.1,2.9,1.7,5.8,2.2,8.8c0.3,2.4,0.5,4.8,0.4,7.2c-0.1,5.7-1.5,11.1-4,16.2c-0.7,1.5-1.6,2.9-2.2,4.4
			c-0.7-0.4-1-1.1-1.3-1.7c-0.5-1.3-0.7-2.8-1-4.2c-0.1-0.6-0.2-1.2-0.4-1.8c-0.1-0.3,0.1-0.6,0.1-0.9c-0.1-2.2-0.1-4.4,0-6.6
			c0-0.2,0-0.3-0.2-0.4c-0.6-0.2-1.2-0.6-1.7-1c-2.9-2-6.1-3-9.4-3.9c-4.2-1.1-8.5-1.9-12.8-1.9c-0.2,0-0.4,0-0.7,0
			c0.4,0.6,0.9,1.1,1.4,1.5c0.5,0.2,0.9,0.5,1.2,1c1.4,1.2,2.5,2.7,3.3,4.5c-0.9-0.3-1.8-0.6-2.7-0.9c-2.7-0.9-5.4-1.9-8.2-2.6
			c-2.7-0.6-5.5-0.8-8.3-1c-5-0.2-9.9,0.7-14.6,2.3c-1.1,0.4-2.2,0.7-3.3,0.9c-0.3,0.1-0.4,0.2-0.4,0.5c-0.1,1.1,0,2.2,0,3.3
			c0,2.6,0.1,5.3,0.1,7.9c0,1.6-0.2,3.2-0.4,4.8c0,0.5-0.3,0.2-0.4,0.1c-1.6-0.9-2.9-2.1-4-3.6c-2.1-2.7-3.2-5.8-4-9.1
			c-1-4.3-1.4-8.7-1.2-13.2c0.1-3.6,0.4-7.2,1.2-10.7c0.6-2.7,1.8-5,3.1-7.4c0.6-1.2,1.4-2.2,2.3-3.1c0.1-0.2,0.2-0.3,0.4-0.4
			c1.9-2.1,4.1-3.9,6.8-5c0.5-0.2,1.1-0.4,1.7-0.5c-0.4,1.2-1,2.4-1.5,3.5c-1,2-1.6,4.2-1.6,6.6c0.2-0.3,0.4-0.6,0.6-0.8
			c1.7-2.6,3.3-5.2,5.3-7.6c0.9-1.1,1.9-2.1,2.9-3.2c0.4-0.7,1-1.2,1.6-1.7c0.5-0.5,0.9-0.9,1.3-1.5c0.1-0.3,0.3-0.5,0.6-0.7
			c0.1-0.1,0.3-0.3,0.4-0.4c0-0.3,0.3-0.5,0.6-0.6C54.9,22.2,55.3,21.6,56,21.4z"/>
		<g id="XMLID_761_">
			<path id="XMLID_771_" class="st1" d="M84.3,74.3L84.3,74.3L84.3,74.3H49v0c-7,0.2-12.7,6.1-12.7,13.3c0,7.4,5.8,13.3,13,13.3
				c3.1,0,5.9-1.1,8.1-2.9h18.7c2.2,1.8,5,2.9,8.1,2.9c7.2,0,13-6,13-13.3C97.3,80.2,91.5,74.3,84.3,74.3z"/>
			<circle id="XMLID_769_" class="st3" cx="84.4" cy="87.3" r="11.3"/>
			<circle id="XMLID_768_" class="st1" cx="84.4" cy="82.6" r="2.4"/>
			<circle id="XMLID_767_" class="st1" cx="78.7" cy="87.3" r="2.4"/>
			<circle id="XMLID_766_" class="st1" cx="90.4" cy="87.3" r="2.4"/>
			<circle id="XMLID_765_" class="st1" cx="84.7" cy="91.9" r="2.4"/>
			<path id="XMLID_764_" class="st3" d="M54.9,87.1c0-1.1,0-1.9-1-1.9h-2.4v-2.3c0-1.1-0.9-1.1-1.9-1.1l0,0c-1.1,0-1.9,0-1.9,1.1
				v2.3h-2.3c-1.1,0-1.1,0.9-1.1,1.9l0,0c0,1.1,0,1.9,1.1,1.9h2.3v2.4c0,1.1,0.9,1,1.9,1l0,0c1.1,0,1.9,0,1.9-1V89h2.4
				C54.9,89,54.9,88.1,54.9,87.1L54.9,87.1z"/>
			<path id="XMLID_763_" class="st3" d="M59.5,90.7L59.5,90.7c-0.3-0.4-0.6-0.7-0.2-1.1l3.3-2.8c0.4-0.3,0.7,0,1,0.4l0,0
				c0.3,0.4,0.6,0.7,0.2,1.1l-3.3,2.8C60.1,91.4,59.8,91.1,59.5,90.7z"/>
			<path id="XMLID_762_" class="st3" d="M65.9,90.7L65.9,90.7c-0.3-0.4-0.6-0.7-0.2-1.1l3.3-2.8c0.4-0.3,0.7,0,1,0.4h0
				c0.3,0.4,0.6,0.7,0.2,1.1l-3.3,2.8C66.5,91.4,66.3,91.1,65.9,90.7z"/>
		</g>
	</g>
	<g id="XMLID_480_">
		<g id="XMLID_702_">
			<g id="XMLID_754_">
				<path id="XMLID_758_" class="st4" d="M142.8,92.8c-3.4,0-7.7-2.7-13-8.1c-2.4-2.4-5.8-6.5-10.5-12.4c-0.1,0.5-0.4,2.6-0.9,6.4
					c-0.4,2.6-0.6,4.8-0.6,6.4c0,0.6,0,1.3,0.1,2.4c0.1,1,0.1,1.8,0.1,2.3c0,1.2-1,1.8-3,1.8c-1.2,0-2-0.3-2.3-1
					c-0.2-0.4-0.3-1.3-0.3-2.6c0-2.1,0.3-5.2,1-9.3c0.6-4.1,1-7.2,1-9.3c0-1.5-0.1-2.6-0.2-3.5c0-0.3-0.2-0.9-0.6-1.7
					c-0.3-0.8-0.5-1.4-0.5-1.7c0-0.6,0.6-1,1.7-1.4c0.9-0.3,1.8-0.5,2.5-0.5s1.2,0.4,1.6,1.1c1.7,3.6,4.9,8,9.6,13.3
					c4.6,5.1,8.6,8.9,12,11.2c1.2,0.9,2.1,1.3,2.7,1.3c0.8,0,1.4-0.7,1.9-2.2c0.4-1.1,0.6-2.2,0.6-3.2c0-1.7-0.3-3.5-0.9-5.5
					c-0.9-3.1-2.3-6-4.1-8.8c-1.8-2.6-3.7-5.2-5.5-7.8c-0.3-0.5-0.5-1-0.5-1.5c0-0.7,0.3-1.4,0.9-2.3c0.6-0.8,1.2-1.3,1.8-1.3
					c0.6,0,1.2,0.4,1.9,1.3c3,3.6,5.6,7.8,7.8,12.9c2.5,5.5,3.7,10.3,3.7,14.3c0,2.8-0.6,5-1.8,6.7
					C147.6,91.9,145.5,92.8,142.8,92.8z"/>
				<path id="XMLID_755_" class="st5" d="M142.8,93.3c-3.5,0-7.9-2.7-13.3-8.3c-2.2-2.3-5.6-6.2-9.9-11.6c-0.2,1.1-0.4,2.8-0.8,5.3
					c-0.4,2.6-0.6,4.7-0.6,6.4c0,0.5,0,1.3,0.1,2.4c0.1,1.1,0.1,1.8,0.1,2.4c0,1-0.6,2.2-3.4,2.2c-1.4,0-2.3-0.4-2.7-1.3
					c-0.1-0.3-0.3-0.9-0.3-2.8c0-2.1,0.3-5.2,1-9.4c0.6-4.1,1-7.2,1-9.2c0-1.4-0.1-2.6-0.2-3.5c0-0.2-0.1-0.7-0.5-1.6
					c-0.5-1.2-0.6-1.6-0.6-1.9c0-1.2,1.5-1.7,2-1.8c1-0.3,1.9-0.5,2.6-0.5c0.9,0,1.6,0.5,2,1.4c1.7,3.5,4.9,7.9,9.6,13.2
					c4.5,5.1,8.5,8.8,11.9,11.1c1.5,1.1,2.2,1.2,2.4,1.2c0.7,0,1.2-1,1.5-1.9c0.4-1.1,0.5-2.1,0.5-3c0-1.6-0.3-3.4-0.9-5.4
					c-0.9-3-2.3-5.9-4-8.7c-1.9-2.7-3.7-5.3-5.5-7.8c-0.4-0.6-0.6-1.2-0.6-1.8c0-0.7,0.3-1.6,0.9-2.5c0.7-1,1.4-1.5,2.2-1.5
					c0.7,0,1.4,0.5,2.3,1.5c3,3.6,5.6,7.9,7.9,13c2.5,5.6,3.8,10.4,3.8,14.5c0,2.9-0.6,5.2-1.9,7C147.8,92.3,145.6,93.3,142.8,93.3z
					 M119,71.2l0.6,0.8c4.6,5.8,8.1,10,10.4,12.4c5.2,5.3,9.4,8,12.6,8c2.6,0,4.5-0.9,5.8-2.7c1.1-1.6,1.7-3.8,1.7-6.5
					c0-3.9-1.2-8.7-3.7-14.1c-2.2-5-4.8-9.2-7.8-12.8c-0.8-0.9-1.3-1.1-1.6-1.1c-0.5,0-0.9,0.4-1.4,1.1c-0.5,0.8-0.8,1.4-0.8,2
					c0,0.4,0.1,0.8,0.4,1.3c1.8,2.5,3.6,5.1,5.5,7.8c1.8,2.8,3.2,5.8,4.2,8.9c0.6,2.1,1,4,1,5.7c0,1-0.2,2.1-0.6,3.3
					c-0.6,1.7-1.4,2.5-2.3,2.5c-0.7,0-1.6-0.4-3-1.4c-3.4-2.4-7.5-6.2-12.1-11.3c-4.7-5.3-8-9.8-9.7-13.4c-0.3-0.6-0.6-0.8-1.2-0.8
					c-0.7,0-1.5,0.1-2.3,0.4c-0.9,0.3-1.4,0.7-1.4,1c0,0.1,0.1,0.5,0.5,1.5c0.4,0.9,0.6,1.5,0.6,1.9c0.1,0.9,0.2,2.1,0.2,3.6
					c0,2.1-0.3,5.2-1,9.4c-0.6,4.1-1,7.2-1,9.2c0,1.7,0.1,2.3,0.2,2.5c0.1,0.2,0.3,0.8,1.9,0.8c2.5,0,2.5-1,2.5-1.3
					c0-0.5,0-1.3-0.1-2.3c-0.1-1-0.1-1.8-0.1-2.4c0-1.7,0.2-3.9,0.6-6.5c0.6-3.8,0.9-5.9,0.9-6.4L119,71.2z"/>
			</g>
			<g id="XMLID_745_">
				<path id="XMLID_751_" class="st4" d="M194.2,80.3c0,1.8-0.5,3.1-1.5,3.7c-0.3,0.2-1.8,0.9-4.6,2.1c-11.2,4.9-20.1,7.4-26.7,7.4
					c-6,0-10-1.8-12-5.5c-1-1.8-1.5-3.7-1.5-5.7c0-3.5,1.8-7.2,5.4-11c3.2-3.4,7.2-6.3,11.9-8.7c4.7-2.4,8.7-3.6,12.1-3.6
					c2.5,0,4.4,0.9,5.8,2.8c0.3,0.5,0.9,1.7,1.7,3.8c0.8,2,1.2,3.3,1.3,3.9v0.3c0.1,3.1-2.9,5.9-8.8,8.2c-2.9,1.2-7.3,2.4-13.1,3.7
					c-4,0.9-7.5,1.8-10.3,2.5c0.9,2.2,3.6,3.4,8.1,3.4c4.4,0,9.6-1.2,15.7-3.5c3.2-1.2,6.4-2.8,9.7-4.6c0.7-0.5,1.8-1.1,3.4-2
					c0.5-0.2,1-0.4,1.3-0.4C193.5,77.1,194.2,78.2,194.2,80.3z M175,65.6c-2.7,0-6.2,1.5-10.7,4.4c-4.2,2.7-7.1,5.3-8.8,7.7
					c4.7-1,8.8-2,12.5-2.9c7.5-1.8,11.3-3.8,11.3-6.1c0-1-0.5-1.8-1.5-2.4C177,65.8,176,65.6,175,65.6z"/>
				<path id="XMLID_746_" class="st5" d="M161.5,94c-6.2,0-10.3-1.9-12.4-5.8c-1-1.9-1.6-3.9-1.6-5.9c0-3.6,1.9-7.4,5.5-11.3
					c3.2-3.4,7.3-6.4,12-8.8c4.7-2.4,8.9-3.6,12.3-3.6c2.6,0,4.7,1,6.2,3c0.4,0.5,1,1.8,1.8,3.9c0.8,2.1,1.3,3.4,1.4,4l0,0.1v0.3
					c0.1,3.3-3,6.2-9.1,8.7c-2.9,1.2-7.3,2.4-13.2,3.8c-3.7,0.9-7,1.7-9.8,2.3c1,1.7,3.6,2.6,7.5,2.6c4.3,0,9.5-1.2,15.5-3.5
					c3.2-1.2,6.4-2.8,9.6-4.6c0.7-0.5,1.9-1.1,3.4-2c0.6-0.3,1.1-0.4,1.5-0.4c1.1,0,2.5,0.6,2.5,3.6c0,2-0.6,3.4-1.6,4.1l0,0
					c-0.2,0.1-0.9,0.5-4.6,2.1C177.1,91.5,168.1,94,161.5,94z M177.4,59.5c-3.3,0-7.3,1.2-11.9,3.5c-4.6,2.4-8.6,5.3-11.8,8.6
					c-3.5,3.7-5.3,7.3-5.3,10.7c0,1.9,0.5,3.7,1.4,5.4c1.9,3.5,5.8,5.3,11.6,5.3c6.5,0,15.4-2.5,26.5-7.3c2.7-1.2,4.2-1.9,4.6-2.1
					c0.8-0.6,1.2-1.7,1.2-3.4c0-2.7-1.1-2.7-1.6-2.7c-0.3,0-0.6,0.1-1.1,0.3c-1.5,0.8-2.6,1.5-3.3,1.9c-3.3,1.9-6.6,3.5-9.8,4.7
					c-6.1,2.3-11.4,3.5-15.8,3.5c-4.7,0-7.6-1.2-8.6-3.6l-0.2-0.5l0.5-0.1c2.9-0.7,6.3-1.6,10.3-2.5c5.8-1.3,10.2-2.6,13.1-3.7
					c5.7-2.3,8.6-4.9,8.5-7.8l0-0.2c-0.1-0.6-0.6-1.8-1.3-3.8c-1-2.5-1.4-3.4-1.7-3.7C181.6,60.3,179.8,59.5,177.4,59.5z
					 M154.5,78.4l0.7-0.9c1.7-2.5,4.7-5.1,8.9-7.9c4.5-3,8.2-4.5,10.9-4.5c1.1,0,2.1,0.3,3,0.9c1.1,0.7,1.7,1.6,1.7,2.8
					c0,3.7-8.8,5.8-11.7,6.5c-3.7,0.9-7.9,1.8-12.5,2.9L154.5,78.4z M175,66c-2.6,0-6.1,1.5-10.4,4.3c-3.6,2.3-6.2,4.6-8,6.7
					c4.2-0.9,8-1.8,11.3-2.6c9.1-2.2,11-4.3,11-5.6c0-0.8-0.4-1.5-1.3-2C176.8,66.3,175.9,66,175,66z"/>
			</g>
			<g id="XMLID_736_">
				<path id="XMLID_742_" class="st4" d="M229.4,91.9c0,0.7-0.4,1.3-1.3,1.8c-0.9,0.5-1.7,0.7-2.5,0.7c-1.1,0-1.8-0.7-2.2-2.1
					c-0.7-2.4-1.1-6.5-1.1-12.4c0-0.6-0.1-0.9-0.2-1.1c-0.2-0.2-0.5-0.2-1-0.2c-3,0-7,0.5-12.2,1.5c-6.1,1.1-10.2,1.8-12.2,2
					c-0.2,1.4-0.3,2.8-0.3,4.4c0,0.4,0,1,0,1.7c0,0.8,0,1.4,0,1.7c0,1.1-0.8,1.7-2.5,1.7c-1,0-1.7-0.3-2-1c-0.1-0.3-0.2-1.1-0.2-2.3
					c0-1.1,0.1-2.9,0.4-5.3c-0.7-0.6-1-1.6-1-2.9c0-1.5,0.6-2.3,1.7-2.5c0.2-2.6,0.4-4.6,0.4-6.2c-0.1,0-0.3,0.1-0.4,0.1
					c-0.5,0-1-0.3-1.3-1c-0.2-0.5-0.4-1.1-0.4-1.7c0-0.8,0.2-1.3,0.5-1.7c0.1-0.2,0.6-0.4,1.4-0.8c-0.2-1.7-0.3-2.5-0.3-2.4
					c0-0.6,0.5-0.8,1.5-0.8c0.6,0,1.2,0.1,1.9,0.4c0.9,0.3,1.3,0.7,1.2,1.2c10.3-3.5,17.8-5.2,22.5-5.2c1,0,1.9,0.5,2.6,1.6
					c0.7,0.9,1,1.9,1,3c0,1-0.3,1.8-0.9,2.3c-2.7,2.5-7.6,5.7-14.8,9.4c8.3-1.4,13.9-2.1,16.8-2.1c1.5,0,2.5,0.2,3.2,0.5
					c0.9,0.5,1.3,1.4,1.3,2.8c0,0.6-0.1,1-0.4,1.2c-0.4,1.8-0.7,3.6-0.7,5.3c0,2.3,0.5,4.8,1.4,7.5
					C229.4,91.4,229.4,91.6,229.4,91.9z M215.2,65.4c-4.8,0.6-10.6,2.1-17.4,4.4c0,1.8-0.2,3.8-0.5,5.9
					C204.7,72.1,210.7,68.6,215.2,65.4z"/>
				<path id="XMLID_737_" class="st5" d="M225.7,94.8c-0.9,0-2.1-0.4-2.6-2.4c-0.7-2.4-1.1-6.6-1.1-12.5c0-0.6-0.1-0.7-0.1-0.7l0,0
					c0,0-0.1-0.1-0.7-0.1c-2.9,0-7,0.5-12.2,1.5c-5.7,1.1-9.8,1.7-11.9,2c-0.1,1.3-0.2,2.6-0.2,3.9v3.5c0,1-0.5,2.1-3,2.1
					c-1.2,0-2-0.4-2.4-1.3c-0.1-0.3-0.2-0.8-0.2-2.5c0-1.1,0.1-2.9,0.4-5.2c-0.7-0.7-1-1.7-1-3c0-1.9,0.9-2.6,1.7-2.9
					c0.2-2.1,0.3-3.9,0.4-5.3c-0.5,0-1.1-0.2-1.6-1.2c-0.3-0.6-0.4-1.2-0.4-1.9c0-0.9,0.2-1.6,0.6-2c0.1-0.2,0.4-0.4,1.2-0.8
					c-0.2-1.6-0.2-1.9-0.3-2l0.4-0.1l0,0h-0.5v-0.4l0.1,0c0.2-0.4,0.6-0.8,1.9-0.8c0.6,0,1.3,0.1,2.1,0.4c0.7,0.3,1.2,0.6,1.4,1.1
					c10.1-3.4,17.5-5.1,22.1-5.1c1.2,0,2.2,0.6,3,1.8c0.7,1,1.1,2,1.1,3.2c0,1.1-0.3,2-1,2.7c-2.4,2.2-6.5,5-12.4,8.2
					c6.8-1.1,11.5-1.6,14.2-1.6c1.6,0,2.7,0.2,3.4,0.6c1,0.6,1.5,1.6,1.5,3.2c0,0.6-0.1,1.1-0.4,1.4c-0.4,1.8-0.6,3.5-0.6,5.1
					c0,2.3,0.5,4.7,1.4,7.4c0.1,0.4,0.2,0.7,0.2,0.9c0,0.9-0.5,1.6-1.6,2.2C227.4,94.5,226.5,94.8,225.7,94.8z M221.1,78.1
					c0.7,0,1.1,0.1,1.3,0.4c0.3,0.3,0.4,0.7,0.4,1.4c0,5.8,0.4,9.9,1.1,12.3c0.4,1.6,1.2,1.7,1.7,1.7c0.7,0,1.4-0.2,2.2-0.7
					c0.7-0.4,1.1-0.8,1.1-1.4c0-0.1,0-0.3-0.1-0.6c-0.9-2.7-1.4-5.3-1.4-7.6c0-1.8,0.2-3.6,0.7-5.4l0-0.1l0.1-0.1
					c0.2-0.2,0.3-0.5,0.3-0.9c0-1.2-0.3-2-1.1-2.4c-0.6-0.3-1.5-0.5-2.9-0.5c-2.9,0-8.5,0.7-16.7,2.1l-2.8,0.5l2.5-1.3
					c7.1-3.7,12.1-6.8,14.7-9.3c0.5-0.5,0.7-1.1,0.7-2c0-1-0.3-1.9-0.9-2.7c-0.6-0.9-1.3-1.4-2.2-1.4c-4.6,0-12.1,1.8-22.3,5.2
					l-0.6,0.2l0-0.7c0-0.4-0.5-0.6-0.9-0.8c-0.7-0.3-1.3-0.4-1.8-0.4c-0.5,0-1,0.1-1.1,0.4c0,0.1,0.1,0.3,0.1,0.6
					c0.1,0.4,0.1,1,0.2,1.8l0,0.3l-0.3,0.1c-1,0.5-1.2,0.6-1.2,0.6l0,0c-0.2,0.2-0.3,0.5-0.3,1.3c0,0.6,0.1,1.1,0.3,1.5
					c0.4,0.7,0.8,0.7,0.9,0.7c0.1,0,0.2,0,0.3,0l0.6-0.1l0,0.6c0,1.6-0.2,3.6-0.4,6.2l0,0.3l-0.3,0.1c-0.5,0.1-1.3,0.4-1.3,2
					c0,1.2,0.3,2,0.9,2.5l0.2,0.2l0,0.2c-0.3,2.4-0.4,4.2-0.4,5.3c0,1.5,0.1,2,0.2,2.2c0.1,0.2,0.3,0.7,1.6,0.7
					c2.1,0,2.1-0.9,2.1-1.2v-3.5c0-1.5,0.1-3,0.3-4.4l0-0.4l0.4,0c2-0.2,6.1-0.9,12.2-2C214,78.6,218.2,78.1,221.1,78.1z
					 M196.8,76.4l0.1-0.8c0.3-2.1,0.4-4.1,0.5-5.9l0-0.3l0.3-0.1c6.8-2.3,12.7-3.8,17.5-4.4l1.8-0.2l-1.4,1
					c-4.5,3.2-10.5,6.7-17.9,10.3L196.8,76.4z M198.2,70.1c0,1.5-0.2,3.1-0.4,4.8c6.2-3,11.4-6,15.5-8.8
					C209.1,66.8,204,68.2,198.2,70.1z"/>
			</g>
			<g id="XMLID_727_">
				<path id="XMLID_733_" class="st4" d="M272.9,79.4c0,1.9-0.7,3-2.1,3.3c-2.6,2.6-6.7,4.6-12.3,5.8c-4.6,0.8-9.3,1.5-13.9,2.2
					c-1.8,0.3-4.7,1.4-8.7,3.2c-0.3,0.1-0.6,0.2-0.9,0.2c-0.9,0-1.6-0.5-2.2-1.4c-0.6-0.9-0.9-1.9-0.9-2.8c0-1.1,0.4-1.8,1.2-2.2
					c0.7-2.8,1.1-6.1,1.1-10c0-5.4-0.6-10.4-1.8-15c-1.2-0.6-1.8-1.5-1.8-2.7c0-0.8,0.3-1.6,0.8-2.3c0.5-0.7,1.2-1.1,2-1.1
					c0.4,0,1.2,0.4,2.3,1.1c0.8,0.6,1.5,1.2,2.3,1.7c6.3,4.3,16.9,9,31.6,14.1C271.9,74.4,272.9,76.3,272.9,79.4z M266.2,78.1
					c-10.1-3.2-19.3-7.1-27.6-11.7c0.4,3.1,0.7,6.6,0.7,10.5c0,2.2-0.1,5.3-0.3,9.2c3.8-0.9,9-1.7,15.6-2.6
					C259.9,82.8,263.8,81,266.2,78.1z"/>
				<path id="XMLID_728_" class="st5" d="M235,94.7c-1,0-1.9-0.5-2.6-1.6c-0.7-1-1-2-1-3c0-1.5,0.6-2.2,1.3-2.5c0.7-2.7,1-6,1-9.7
					c0-5.3-0.6-10.2-1.8-14.7c-1.2-0.7-1.8-1.7-1.8-3c0-0.9,0.3-1.8,0.9-2.6c0.6-0.8,1.4-1.3,2.4-1.3c0.3,0,1,0.1,2.6,1.2
					c0.8,0.6,1.5,1.2,2.3,1.7c6.3,4.2,16.9,8.9,31.5,14c2.4,0.8,3.6,2.9,3.6,6.2c0,2.5-1.2,3.4-2.3,3.7c-2.6,2.6-6.8,4.6-12.5,5.8
					c-4.6,0.8-9.3,1.5-13.9,2.2c-1.7,0.3-4.6,1.4-8.5,3.2C235.7,94.6,235.4,94.7,235,94.7z M233.4,57.1c-0.7,0-1.2,0.3-1.6,0.9
					c-0.5,0.7-0.7,1.3-0.7,2.1c0,1,0.5,1.8,1.5,2.4l0.2,0.1l0.1,0.2c1.2,4.6,1.8,9.7,1.8,15.1c0,3.9-0.4,7.3-1.1,10.1l-0.1,0.2
					l-0.2,0.1c-0.4,0.2-0.9,0.5-0.9,1.8c0,0.8,0.3,1.7,0.8,2.6c0.5,0.8,1.1,1.2,1.8,1.2c0.2,0,0.4-0.1,0.7-0.2
					c4.1-1.8,6.9-2.9,8.8-3.2c4.7-0.7,9.3-1.5,13.9-2.2c5.5-1.2,9.6-3.1,12.1-5.7l0.1-0.1l0.1,0c1.2-0.3,1.8-1.2,1.8-2.9
					c0-2.9-1-4.7-3-5.4c-14.7-5.1-25.4-9.9-31.7-14.2c-0.8-0.6-1.6-1.1-2.3-1.7C234.1,57.2,233.6,57.1,233.4,57.1z M238.5,86.7
					l0-0.6c0.2-3.9,0.3-7,0.3-9.2c0-3.9-0.2-7.4-0.7-10.4l-0.1-0.9l0.8,0.4c8.3,4.6,17.6,8.5,27.6,11.6l0.6,0.2l-0.4,0.5
					c-2.5,2.9-6.5,4.8-12,5.5c-6.5,0.9-11.7,1.8-15.5,2.6L238.5,86.7z M239.1,67.3c0.4,2.9,0.6,6.1,0.6,9.7c0,2.1-0.1,5-0.2,8.7
					c3.8-0.8,8.8-1.7,15-2.5c4.9-0.7,8.6-2.3,10.9-4.7C255.9,75.3,247.1,71.6,239.1,67.3z"/>
			</g>
			<g id="XMLID_718_">
				<path id="XMLID_724_" class="st4" d="M306.7,81.3c-0.5,0-1.3-0.1-2.4-0.2c-1.1-0.1-1.8-0.2-2.4-0.2h-0.3c-0.8,3-1.1,5.7-1.1,8
					c0,1.8,0.3,3.8,0.8,5.9c0.1,0.5,0.2,0.9,0.2,1.2c0,1.1-0.6,1.6-1.7,1.6c-0.6,0-1.3-0.2-2.1-0.5c-0.8-0.3-1.3-0.8-1.5-1.2
					c-0.8-1.9-1.2-4.4-1.2-7.4c0-2.2,0.3-4.6,0.8-7.2c-2.1,0.3-4.9,0.7-8.2,1.4c-4.5,0.9-7.2,1.4-8.2,1.6c0,0.1,0.6,1.5,1.6,4.1
					c0.9,2.2,1.3,3.4,1.3,3.7c0,0.7-0.4,1.2-1.1,1.7c-0.6,0.3-1.3,0.5-2.1,0.5c-1.5,0-2.5-0.6-3-1.7c-0.9-1.9-1.8-4.4-2.8-7.5
					c-1.3,0.1-2.2,0.2-2.7,0.2c-0.7,0-1.2-0.4-1.6-1.3c-0.3-0.7-0.4-1.4-0.4-2.2c0-1.2,0.2-1.9,0.6-2.3c0.4-0.3,1.2-0.5,2.3-0.4
					c-1-3.8-1.5-6.8-1.5-8.9c0-1.3,0.2-2.3,0.6-3.1c0.8-1.6,2.6-2.9,5.2-3.7c2.9-1,6.7-1.8,11.6-2.5c4.7-0.7,8.6-1,11.8-1
					c4.9,0,7.4,1.4,7.4,4.3c0,0.9-0.4,2.7-1.2,5.3c-0.6,1.8-1.2,3.7-1.9,5.5c0.4,0,0.9,0.1,1.7,0.3c0.7,0.1,1.4,0.8,2,1.9
					c0.5,1,0.7,1.9,0.7,2.8C308,80.8,307.5,81.3,306.7,81.3z M300.3,66.3c-0.4-0.4-1.6-0.6-3.6-0.6c-3.1,0-6.5,0.3-10.4,0.8
					c-5.2,0.8-8.3,1.8-9.4,3.1c-0.3,0.4-0.5,1.2-0.5,2.2c0,1.6,0.4,3.8,1.2,6.8c2-0.2,5.3-0.9,10-1.9c4.2-0.9,7.6-1.5,10-1.8
					c0.5-1.4,1-2.9,1.6-4.3c0.8-2.2,1.2-3.5,1.2-4.1L300.3,66.3z"/>
				<path id="XMLID_719_" class="st5" d="M299.9,98.1c-0.7,0-1.5-0.2-2.3-0.6c-0.9-0.4-1.5-0.9-1.7-1.5c-0.8-1.9-1.2-4.5-1.2-7.5
					c0-2.1,0.2-4.3,0.7-6.6c-2,0.3-4.6,0.7-7.6,1.3c-3.8,0.8-6.4,1.3-7.7,1.5c0.4,0.9,1.1,2.8,1.4,3.6c1.3,3.3,1.3,3.7,1.3,3.9
					c0,0.6-0.2,1.4-1.4,2.1c-0.7,0.4-1.5,0.6-2.3,0.6c-1.7,0-2.8-0.7-3.4-2c-0.9-1.8-1.8-4.2-2.7-7.2c-1.1,0.1-1.9,0.2-2.4,0.2
					c-0.9,0-1.5-0.5-2-1.6c-0.3-0.7-0.5-1.5-0.5-2.4c0-1.3,0.2-2.2,0.8-2.6c0.4-0.3,1.1-0.5,2-0.5c-0.9-3.6-1.3-6.4-1.3-8.5
					c0-1.4,0.2-2.5,0.6-3.3c0.9-1.7,2.7-3.1,5.5-4c2.9-1,6.8-1.8,11.7-2.6c4.7-0.7,8.7-1,11.9-1c5.2,0,7.8,1.6,7.8,4.7
					c0,1-0.4,2.8-1.3,5.5l-1.7,5c0.3,0,0.7,0.1,1.2,0.2c0.9,0.2,1.7,0.9,2.3,2.1c0.5,1.1,0.8,2.1,0.8,3c0,1.2-0.6,1.9-1.7,1.9
					c-0.5,0-1.3-0.1-2.4-0.2c-1-0.1-1.8-0.2-2.3-0.2c-0.7,2.8-1,5.4-1,7.5c0,1.8,0.3,3.7,0.8,5.8c0.1,0.6,0.2,1,0.2,1.3
					C302,97.3,301.3,98.1,299.9,98.1z M296.4,80.8l-0.1,0.6c-0.5,2.5-0.8,4.9-0.8,7.1c0,2.9,0.4,5.4,1.2,7.2c0.2,0.4,0.6,0.7,1.3,1
					c0.7,0.3,1.4,0.5,1.9,0.5c0.9,0,1.2-0.3,1.2-1.2c0-0.2-0.1-0.6-0.2-1.1c-0.6-2.1-0.8-4.2-0.8-6c0-2.3,0.4-5.1,1.2-8.1l0.1-0.3
					h0.7c0.5,0,1.3,0.1,2.4,0.2c1,0.1,1.8,0.2,2.3,0.2c0.4,0,0.8-0.1,0.8-1c0-0.8-0.2-1.7-0.7-2.6c-0.5-1-1.1-1.5-1.7-1.6
					c-0.7-0.1-1.3-0.2-1.6-0.3l-0.6-0.1l2.1-6c0.8-2.6,1.2-4.3,1.2-5.2c0-2.6-2.3-3.8-6.9-3.8c-3.1,0-7.1,0.3-11.8,1
					c-4.8,0.7-8.7,1.6-11.5,2.5c-2.5,0.8-4.2,2-5,3.5c-0.3,0.7-0.5,1.6-0.5,2.9c0,2.1,0.5,5.1,1.4,8.8l0.1,0.6l-0.6,0
					c-1.3,0-1.8,0.2-2,0.3c-0.2,0.1-0.4,0.6-0.4,1.9c0,0.7,0.1,1.4,0.4,2c0.5,1.1,1,1.1,1.1,1.1c0.5,0,1.4-0.1,2.7-0.2l0.4,0
					l0.1,0.4c1,3.1,1.9,5.6,2.8,7.5c0.4,1,1.3,1.5,2.6,1.5c0.7,0,1.3-0.2,1.9-0.5c0.8-0.4,0.9-0.9,0.9-1.3c0-0.1-0.1-0.7-1.3-3.6
					c-1.4-3.5-1.6-4-1.6-4.1l-0.2-0.5l0.5-0.1c1-0.2,3.7-0.7,8.2-1.6c3.3-0.7,6.1-1.1,8.3-1.4L296.4,80.8z M277.3,79.1l-0.1-0.4
					c-0.8-3-1.3-5.3-1.3-6.9c0-1.1,0.2-1.9,0.6-2.4c1.2-1.4,4.4-2.5,9.7-3.3c3.8-0.6,7.4-0.8,10.4-0.8c2.8,0,3.6,0.4,3.9,0.8
					l0.1,0.1l0.1,0.4c0,0.4-0.1,1.3-1.2,4.3c-0.5,1.4-1,2.8-1.6,4.3l-0.1,0.3l-0.3,0c-2.4,0.2-5.8,0.8-10,1.7
					c-4.7,1-8.1,1.6-10.1,1.9L277.3,79.1z M296.7,66.2c-3,0-6.5,0.3-10.3,0.8c-5,0.7-8.1,1.7-9.2,2.9c-0.3,0.3-0.4,1-0.4,1.9
					c0,1.5,0.4,3.6,1.1,6.3c2-0.3,5.2-0.9,9.6-1.8c4.1-0.9,7.3-1.5,9.8-1.7c0.5-1.4,1-2.7,1.5-4c0.9-2.5,1.1-3.5,1.2-3.9l0,0
					C299.7,66.4,298.9,66.2,296.7,66.2z"/>
			</g>
			<g id="XMLID_709_">
				<path id="XMLID_715_" class="st4" d="M314.4,92.3c-6.7,0-10-2-10-6c0-5.2,5.6-12.5,16.7-22c-1-0.7-1.6-1.7-1.6-3
					c0-1.5,1.1-2.3,3.2-2.3c1.1,0,3,0.5,5.7,1.4c4.8,1.8,8.5,3.5,11,5.1c4.3,2.8,6.5,6,6.5,9.4c0,3.8-2.8,7.4-8.3,10.6
					C329.9,90.1,322.2,92.3,314.4,92.3z M340.6,75.2c0-2.3-1.9-4.3-5.6-6.2c-2.5-1.2-5.4-2.2-8.6-2.9c-0.8,0.8-1.9,2-3.5,3.5
					c-3.8,3.5-6.2,5.7-7.3,6.8c-3.4,3.5-5.1,6.1-5.1,7.7c0,1.8,1.8,2.7,5.4,2.7c3.5,0,7.5-0.8,12.2-2.4c4.9-1.7,8.5-3.7,10.7-6
					C340,77.3,340.6,76.2,340.6,75.2z"/>
				<path id="XMLID_710_" class="st5" d="M314.4,92.8c-6.9,0-10.5-2.2-10.5-6.4c0-5.3,5.4-12.5,16.4-22c-0.9-0.8-1.3-1.8-1.3-3
					c0-1.2,0.6-2.7,3.6-2.7c1.2,0,3.1,0.5,5.8,1.4c4.8,1.8,8.6,3.5,11.1,5.2c4.4,2.9,6.7,6.2,6.7,9.8c0,4-2.9,7.7-8.6,11
					C330.1,90.5,322.2,92.8,314.4,92.8z M322.7,59.5c-2.4,0-2.7,1-2.7,1.8c0,1.1,0.4,1.9,1.4,2.6l0.5,0.3l-0.4,0.4
					c-11,9.4-16.5,16.7-16.5,21.7c0,3.7,3.1,5.5,9.6,5.5c7.7,0,15.4-2.2,22.9-6.6c5.4-3.1,8.1-6.6,8.1-10.2c0-3.3-2.1-6.3-6.3-9.1
					c-2.5-1.6-6.2-3.3-11-5.1C325.6,60,323.8,59.5,322.7,59.5z M315.9,87.4c-3.9,0-5.9-1.1-5.9-3.1c0-1.7,1.7-4.3,5.2-8
					c1.1-1.1,3.5-3.4,7.3-6.9c1.6-1.6,2.7-2.7,3.5-3.5l0.2-0.2l0.2,0.1c3.3,0.7,6.2,1.7,8.7,2.9c3.9,1.9,5.8,4.1,5.8,6.6
					c0,1.1-0.6,2.3-1.9,3.6c-2.3,2.3-5.9,4.3-10.9,6.1C323.6,86.5,319.4,87.4,315.9,87.4z M326.5,66.7c-0.8,0.8-1.8,1.9-3.3,3.4
					c-3.8,3.5-6.2,5.7-7.3,6.8c-4.1,4.3-5,6.4-5,7.4c0,1.5,1.7,2.2,5,2.2c3.4,0,7.4-0.8,12-2.4c4.8-1.7,8.4-3.7,10.5-5.9
					c1.1-1.1,1.6-2.1,1.6-3c0-2.1-1.8-4-5.3-5.8C332.4,68.3,329.6,67.4,326.5,66.7z"/>
			</g>
			<g id="XMLID_703_">
				<path id="XMLID_707_" class="st4" d="M266.2,54.3c-0.3-8.5,4.3-12.9,10.2-12.9c3.6,0,6.3,1.1,12.1,3.8c4.4,2.1,7.5,3.6,10.7,3.6
					c3.1,0,4.5-2.5,4.6-7.2h5.1c0.4,9.6-4.5,12.9-9.8,12.9c-3.4,0-6.5-1-12.4-3.8c-4-2-7.2-3.8-10.3-3.8s-5,2.1-5.1,7.3H266.2z"/>
				<path id="XMLID_704_" class="st5" d="M299,55c-3.4,0-6.3-0.9-12.6-3.8c-0.5-0.3-1-0.5-1.5-0.7c-3.3-1.7-6-3-8.6-3
					c-3,0-4.5,2.2-4.7,6.8l0,0.4h-5.9l0-0.4c-0.2-4.4,0.9-8,3.2-10.4c1.9-2,4.4-3,7.4-3c3.7,0,6.6,1.2,12.2,3.9l0.4,0.2
					c4.1,1.9,7.1,3.4,10.1,3.4c1,0,4,0,4.2-6.7l0-0.4h6l0,0.4c0.2,4.7-0.8,8.2-3,10.5C304.5,54.1,302,55,299,55z M276.4,46.6
					c2.8,0,5.7,1.4,9,3.1c0.5,0.2,1,0.5,1.5,0.7c6.1,2.8,9,3.7,12.2,3.7c1.9,0,4.6-0.4,6.6-2.6c2-2.1,2.9-5.2,2.8-9.4h-4.3
					c-0.2,4.8-1.9,7.2-5.1,7.2c-3.2,0-6.2-1.4-10.5-3.4l-0.4-0.2c-5.5-2.6-8.3-3.8-11.9-3.8c-2.7,0-5,0.9-6.7,2.7
					c-2,2.1-3.1,5.3-3,9.3h4.2C271.1,49.1,273,46.6,276.4,46.6z"/>
			</g>
		</g>
		<g id="XMLID_482_">
			<g>
				<g id="XMLID_380_">
					<path id="XMLID_384_" d="M253.7,116.2c0,0.2-0.1,0.6-0.4,1.1c-0.3,0.6-0.5,1.1-0.5,1.4c0,0.2,0,0.4,0,0.7
						c-0.1,0.6-0.2,0.9-0.5,1c-0.3,0.1-0.9-0.1-2-0.5c-1-0.5-1.6-0.8-1.7-1.1c-0.1-0.2,0-0.7,0.4-1.7c0.3-0.8,0.6-1.4,0.8-1.8
						c0.1-0.2,0.3-0.3,0.7-0.3c-0.1,0,0.5,0.1,1.8,0.4C253.1,115.5,253.6,115.8,253.7,116.2z"/>
					<path id="XMLID_381_" class="st5" d="M252.2,120.7c-0.3,0-0.9-0.1-1.9-0.6c-1.5-0.7-1.8-1-1.9-1.2c-0.1-0.2-0.1-0.6,0.4-1.9
						c0.3-0.8,0.6-1.4,0.9-1.8c0.1-0.2,0.3-0.3,0.6-0.4l0,0l0.3,0c0,0,0,0,0,0v0.3l0.1-0.2c0,0,0.3,0.1,1.7,0.3
						c0.9,0.2,1.4,0.5,1.5,1l0,0c0.1,0.3-0.1,0.7-0.4,1.3c-0.3,0.5-0.4,1-0.4,1.3c0,0.2,0,0.4,0,0.7c-0.1,0.7-0.3,1.1-0.7,1.3
						C252.4,120.7,252.3,120.7,252.2,120.7z M250.6,115.3c-0.3,0-0.3,0.1-0.4,0.2c-0.2,0.4-0.5,1-0.8,1.7c-0.5,1.1-0.4,1.4-0.4,1.4
						c0,0,0.2,0.3,1.6,0.9c1.4,0.6,1.7,0.5,1.7,0.5c0,0,0.2-0.1,0.3-0.8c0-0.3,0-0.5,0-0.6l0,0c0-0.4,0.2-0.9,0.5-1.6
						c0.3-0.6,0.3-0.9,0.3-0.9c-0.1-0.2-0.4-0.4-1.1-0.5C251.3,115.5,250.8,115.4,250.6,115.3z"/>
				</g>
				<g id="XMLID_374_">
					<path id="XMLID_378_" d="M268.5,113.7c0,0.4-0.3,0.9-1,1.5c-0.5,1.2-1,2-1.4,2.5c-0.9,1.2-2,1.9-3.3,2.1
						c-0.3,0-0.5,0.1-0.8,0.1c-1.1,0-2.5-0.5-4.1-1.6c-1.4-0.9-2.1-3.1-2.1-6.5c0-2.5,0.4-4.8,1.2-6.9c0.8-2.2,1.9-3.4,3.1-3.5
						c1-0.1,2.2,0.2,3.6,0.8c1.4,0.6,2.4,1.2,2.8,1.9c0.4,0.6,0.6,1.3,0.6,2.3c0,0.3,0,0.6-0.1,1.1c0,0.5,0,0.8,0,1
						c0,0.5,0.1,0.8,0.1,0.7c0,0.6-0.3,0.9-0.9,0.9c-0.7,0-1.4-0.1-2-0.3c-0.8-0.3-1.4-0.7-1.5-1.2c-0.1-0.2,0-0.4,0.3-0.7
						c0.2-0.3,0.3-0.5,0.3-0.7c0-0.1,0.1-0.5,0.1-1c0-1.2-0.2-1.8-0.6-1.8c-0.6,0-1.2,0.9-1.6,2.9c-0.4,1.7-0.6,3.6-0.6,5.7
						c0,2.4,0.3,3.7,0.9,3.9c0.5,0.1,1-0.4,1.8-1.5c0.6-0.9,0.9-1.6,1-1.9c0-0.3,0.1-0.7,0.1-1c0.1-0.6,0.5-0.8,1.1-0.8
						c0.4,0,1,0.3,1.9,0.7c0.9,0.4,1.4,0.7,1.4,0.9C268.4,113.4,268.5,113.5,268.5,113.7z"/>
					<path id="XMLID_375_" class="st5" d="M261.9,120.2c-1.2,0-2.6-0.6-4.3-1.6c-1.5-1-2.2-3.2-2.2-6.8c0-2.6,0.4-4.9,1.2-7
						c0.9-2.3,2-3.6,3.4-3.7c1-0.1,2.2,0.2,3.7,0.8c1.5,0.6,2.4,1.3,3,2c0.4,0.6,0.7,1.4,0.7,2.5c0,0.3,0,0.6-0.1,1.1
						c0,0.6,0,0.8,0,1c0,0.4,0.1,0.7,0.1,0.7l-0.3,0l0,0h0.3v0.3l0,0c0,0.3-0.1,0.5-0.3,0.6c-0.2,0.2-0.5,0.3-0.9,0.3
						c-0.7,0-1.4-0.1-2.1-0.3c-0.9-0.3-1.5-0.8-1.7-1.4c-0.1-0.3,0-0.6,0.3-1c0.2-0.3,0.2-0.5,0.2-0.5l0-0.1l0-0.1c0-0.1,0-0.2,0-1
						c0-1.2-0.2-1.5-0.4-1.5c-0.2,0-0.7,0.2-1.3,2.6c-0.4,1.7-0.6,3.6-0.6,5.6c0,3.2,0.5,3.5,0.6,3.6c0.1,0,0.5,0,1.5-1.4
						c0.8-1.2,0.9-1.6,0.9-1.8c0-0.3,0.1-0.6,0.1-1l0,0c0.2-0.7,0.7-1,1.4-1c0.4,0,1,0.3,2,0.7c1.3,0.6,1.5,0.9,1.6,1.1
						c0.1,0.2,0.1,0.4,0.1,0.6c0,0.5-0.3,1-1,1.7c-0.5,1.2-1,2-1.4,2.5c-0.9,1.2-2.1,2-3.5,2.2C262.5,120.1,262.2,120.2,261.9,120.2
						z M260.3,101.7c-0.1,0-0.2,0-0.3,0c-1.1,0.1-2,1.2-2.8,3.3c-0.8,2-1.1,4.3-1.1,6.8c0,3.3,0.7,5.4,2,6.3c1.6,1,2.9,1.5,3.9,1.5
						c0.2,0,0.5,0,0.8-0.1c1.2-0.2,2.3-0.9,3.2-2c0.4-0.5,0.9-1.3,1.4-2.5l0-0.1l0,0c0.8-0.7,0.9-1.1,0.9-1.3c0-0.1,0-0.3-0.1-0.4
						c0,0-0.1-0.2-1.2-0.7c-1.1-0.5-1.6-0.6-1.8-0.7c-0.4,0-0.6,0.1-0.7,0.5c0,0.3-0.1,0.7-0.1,1c0,0.2-0.2,0.7-1,2
						c-0.8,1.2-1.5,1.7-2.1,1.6c-0.8-0.2-1.1-1.5-1.1-4.1c0-2.1,0.2-4,0.6-5.8c0.5-2.2,1.1-3.2,1.9-3.1c0.8,0.1,0.9,1.3,0.9,2.1
						c0,0.6,0,0.9-0.1,1.1c0,0.3-0.1,0.6-0.3,0.9c-0.2,0.3-0.2,0.4-0.2,0.4c0.1,0.4,0.6,0.8,1.4,1c0.6,0.2,1.2,0.3,1.9,0.3
						c0.2,0,0.4,0,0.5-0.1c0.1-0.1,0.1-0.3,0.1-0.5h0c0-0.2,0-0.4-0.1-0.7c0-0.2,0-0.6,0-1.1c0-0.5,0.1-0.8,0.1-1.1
						c0-0.9-0.2-1.6-0.6-2.1c-0.5-0.6-1.4-1.2-2.7-1.8C262.2,101.9,261.1,101.7,260.3,101.7z"/>
				</g>
				<g id="XMLID_365_">
					<path id="XMLID_371_" d="M280.8,102.5c1.1,0.5,1.9,1.6,2.5,3.1c0.5,1.4,0.8,3.1,0.8,5c0,2.7-0.5,5-1.4,6.9
						c-1,2.1-2.3,3-3.8,2.8c-0.6-0.1-1.4-0.3-2.5-0.5c-0.8-0.1-1.5-0.2-2.2-0.4c-1.1-0.3-2-1.3-2.7-2.9c-0.6-1.5-0.9-3.3-0.9-5.3
						c0-2,0.3-3.9,0.9-5.5c0.7-1.8,1.7-3.1,3-3.8c0.2-0.1,0.5-0.2,0.9-0.2c0.4,0,1.2,0.1,2.3,0.4
						C278.6,102.1,279.6,102.3,280.8,102.5z M277.5,105.1c-0.5,0-1,0.6-1.5,1.9c-0.5,1.3-0.7,2.5-0.7,3.7c0,1.4,0.2,2.8,0.5,4.2
						c0.4,1.5,0.8,2.3,1.3,2.4c0.6,0.1,1.2-0.6,1.7-2.1c0.5-1.5,0.7-3.2,0.7-5c0-1-0.1-2-0.4-3C278.8,105.9,278.2,105.1,277.5,105.1
						z"/>
					<path id="XMLID_366_" class="st5" d="M279.4,120.7c-0.1,0-0.3,0-0.4,0l0,0c-0.5-0.1-1.4-0.3-2.5-0.5c-0.8-0.1-1.6-0.3-2.2-0.5
						c-1.2-0.3-2.2-1.3-2.9-3c-0.6-1.5-0.9-3.3-0.9-5.4c0-2.1,0.3-4,1-5.6c0.7-1.9,1.8-3.2,3.1-4c0.3-0.1,0.6-0.2,1-0.2
						c0.4,0,1.2,0.1,2.4,0.4c0.8,0,1.8,0.1,3,0.3l0.1,0c1.2,0.5,2.1,1.6,2.7,3.3c0.5,1.5,0.8,3.2,0.8,5.1c0,2.7-0.5,5.1-1.4,7.1
						C282.1,119.7,280.8,120.7,279.4,120.7z M279,120.1c1.4,0.2,2.5-0.7,3.4-2.7c0.9-1.9,1.3-4.2,1.3-6.8c0-1.9-0.3-3.5-0.8-4.9
						c-0.6-1.5-1.3-2.4-2.3-2.9c-1.2-0.2-2.1-0.3-2.8-0.3l-0.1,0c-1.1-0.3-1.9-0.4-2.3-0.4c-0.3,0-0.6,0-0.7,0.1
						c-1.2,0.7-2.2,1.9-2.9,3.7c-0.6,1.6-0.9,3.4-0.9,5.4c0,2,0.3,3.7,0.9,5.2c0.6,1.5,1.5,2.4,2.5,2.7c0.6,0.2,1.4,0.3,2.2,0.4
						C277.7,119.8,278.5,120,279,120.1z M277.3,117.8c-0.1,0-0.1,0-0.2,0c-0.6-0.2-1.1-1-1.5-2.7c-0.3-1.4-0.5-2.8-0.5-4.3
						c0-1.2,0.2-2.5,0.7-3.8c0.5-1.4,1.1-2.1,1.8-2.1c0.9,0,1.6,0.8,2,2.4c0.3,1,0.4,2,0.4,3.1c0,1.8-0.2,3.5-0.7,5.1
						C278.9,116,278.4,117.8,277.3,117.8z M277.5,105.4c-0.2,0-0.7,0.2-1.2,1.7c-0.4,1.3-0.7,2.5-0.7,3.6c0,1.4,0.2,2.8,0.5,4.1
						c0.5,1.9,0.9,2.2,1.1,2.2c0.4,0.1,0.9-0.6,1.3-1.9c0.5-1.5,0.7-3.1,0.7-4.9c0-1-0.1-2-0.4-2.9
						C278.5,106.1,278.1,105.4,277.5,105.4z"/>
				</g>
				<g id="XMLID_359_">
					<path id="XMLID_363_" d="M308.3,117.6c0.2,0.4,0.2,0.8,0.2,1.1c0,0.6-0.2,1-0.7,1.2c-0.1,0.1-0.4,0.1-0.7,0.1
						c-0.7,0-1.5-0.1-2.4-0.3c-0.9-0.2-1.5-0.4-1.7-0.6c-0.1-0.1-0.1-0.2-0.1-0.4c0-0.2,0.1-0.6,0.4-1.1c0.3-0.5,0.4-0.8,0.4-1.1
						c0-7.8,0-11.7-0.2-11.8c-0.3-0.1-1,0.7-1.9,2.3c-1.1,1.8-1.6,3.4-1.6,4.7v5.8c0.1,0.5,0.2,0.8,0.2,1.1c0,0.5-0.3,0.9-0.8,1.1
						c-0.1,0.1-0.4,0.1-0.7,0.1c-0.7,0-1.5-0.1-2.4-0.3c-0.9-0.2-1.5-0.4-1.7-0.6c-0.1-0.1-0.1-0.2-0.1-0.3c0-0.2,0.1-0.6,0.4-1.1
						c0.3-0.5,0.4-0.9,0.4-1.1c0-7.8,0-11.7-0.2-11.8c-0.3-0.1-1,0.8-2,2.7c-1.1,2-1.7,3.5-1.7,4.5v5.5c0.3,0.3,0.4,0.6,0.4,0.9
						c0,0.8-0.3,1.3-1,1.5c-0.1,0-0.2,0.1-0.4,0.1c-0.5,0-1.3-0.1-2.3-0.4c-1-0.2-1.6-0.4-1.7-0.6c-0.1-0.2-0.2-0.3-0.2-0.5
						c0-0.2,0.1-0.4,0.3-0.7c0.2-0.3,0.3-0.5,0.3-0.5v-13.8c0-0.2-0.1-0.4-0.2-0.6c-0.2-0.3-0.2-0.5-0.1-0.7
						c0.1-0.4,0.4-0.7,0.9-0.8c0.3-0.1,1.1,0,2.2,0.3c1.3,0.3,2,0.6,2.1,1c0.1,0.2,0,0.5-0.1,1c-0.2,0.7-0.3,1.1-0.3,1.2
						c0,0.2,0,0.5,0.1,0.7c0.3-1,0.7-1.9,1.2-2.6c0.7-0.9,1.3-1.4,2-1.4c0.6,0,1.5,0.2,2.6,0.7c1,0.5,1.6,0.9,1.9,1.2
						c0.2,0.2,0.4,0.9,0.6,2.1c0.8-1.5,1.3-2.4,1.4-2.6c0.7-1,1.3-1.5,1.9-1.5c0.7,0,1.5,0.2,2.6,0.7c1.1,0.5,1.7,0.9,1.8,1.3
						C308,104.8,308.3,109.5,308.3,117.6z"/>
					<path id="XMLID_360_" class="st5" d="M290.5,120.3c-0.6,0-1.4-0.1-2.4-0.4c-1.5-0.4-1.8-0.6-1.9-0.7c-0.2-0.2-0.2-0.4-0.2-0.7
						c0-0.3,0.1-0.6,0.4-0.9c0.2-0.2,0.3-0.3,0.3-0.4v-13.7c0,0,0-0.2-0.2-0.5c-0.2-0.3-0.3-0.6-0.2-0.9c0.1-0.3,0.4-0.8,1.1-1
						c0.2-0.1,0.7-0.1,2.4,0.3c1.8,0.5,2.2,0.9,2.3,1.2c0.1,0.2,0.1,0.5,0,0.8c0.1-0.2,0.3-0.4,0.4-0.7c0.7-1,1.5-1.5,2.2-1.5
						c0.7,0,1.6,0.3,2.7,0.8c1.1,0.5,1.7,0.9,2,1.3c0.1,0.1,0.3,0.5,0.5,1.4c0.6-1.1,0.9-1.7,1-1.8c0.8-1.1,1.5-1.7,2.2-1.7
						c0.7,0,1.6,0.2,2.7,0.7c1.2,0.5,1.8,1,2,1.4c0.6,1.3,0.9,5.9,0.9,14.1c0.2,0.4,0.2,0.8,0.2,1.2c0,0.9-0.5,1.3-0.9,1.5
						c-0.2,0.1-0.5,0.1-0.9,0.1c-0.7,0-1.5-0.1-2.5-0.3c-1.3-0.3-1.7-0.5-1.8-0.7c-0.2-0.2-0.2-0.4-0.2-0.6c0-0.3,0.2-0.7,0.5-1.2
						c0.4-0.6,0.4-0.8,0.4-0.9c0-8,0-10.6-0.1-11.4c-0.2,0.2-0.6,0.7-1.4,2.1c-1,1.8-1.6,3.3-1.6,4.6v5.8c0.1,0.5,0.2,0.8,0.2,1.1
						c0,0.4-0.2,1-0.9,1.4c-0.2,0.1-0.5,0.1-0.9,0.1c-0.7,0-1.5-0.1-2.5-0.3c-1.3-0.3-1.7-0.5-1.8-0.7c-0.1-0.1-0.2-0.3-0.2-0.5
						c0-0.2,0-0.5,0.5-1.2c0.3-0.6,0.4-0.9,0.4-1c0-7.8,0-10.5-0.1-11.3c-0.2,0.3-0.7,0.9-1.6,2.4c-1.1,1.9-1.7,3.4-1.7,4.3v5.4
						c0.3,0.3,0.4,0.7,0.4,1.1c0,0.9-0.4,1.5-1.2,1.8C290.8,120.3,290.7,120.3,290.5,120.3z M287.7,101.7c-0.1,0-0.1,0-0.2,0
						c-0.4,0.1-0.6,0.3-0.7,0.6c0,0.1,0,0.2,0.1,0.4c0.2,0.3,0.3,0.6,0.3,0.8v13.8c0,0.1-0.1,0.3-0.4,0.7c-0.2,0.3-0.3,0.5-0.3,0.5
						c0,0.1,0,0.2,0.1,0.4c0,0,0.2,0.2,1.5,0.5c1,0.2,1.8,0.4,2.3,0.4c0.2,0,0.2,0,0.2,0c0.6-0.2,0.8-0.6,0.8-1.3
						c0-0.3-0.1-0.5-0.3-0.7l-0.1-0.1V112c0-1.1,0.6-2.6,1.8-4.6c1.6-2.8,2-2.9,2.4-2.8c0.3,0.1,0.4,0.2,0.4,12
						c0,0.3-0.1,0.7-0.5,1.3c-0.4,0.7-0.4,0.9-0.4,0.9c0,0,0,0.1,0,0.1c0.1,0.1,0.4,0.3,1.5,0.5c0.9,0.2,1.7,0.3,2.3,0.3
						c0.4,0,0.6,0,0.6-0.1c0.4-0.2,0.6-0.5,0.6-0.8c0-0.2-0.1-0.6-0.2-1l0-0.1v-5.8c0-1.4,0.6-3,1.6-4.9c1.3-2.2,1.8-2.6,2.3-2.5
						c0.3,0.1,0.4,0.2,0.4,12.1c0,0.3-0.2,0.7-0.5,1.2c-0.4,0.6-0.4,0.8-0.4,0.9c0,0,0,0.1,0.1,0.2c0.1,0.1,0.3,0.2,1.5,0.5
						c0.9,0.2,1.7,0.3,2.3,0.3c0.4,0,0.6,0,0.6-0.1c0.3-0.2,0.5-0.5,0.5-0.9c0-0.3-0.1-0.7-0.2-1l0-0.1v-0.1c0-8-0.3-12.7-0.8-13.9
						c-0.1-0.2-0.4-0.5-1.7-1.1c-1-0.4-1.9-0.7-2.5-0.7c-0.5,0-1.1,0.5-1.7,1.4c-0.1,0.2-0.6,1.1-1.4,2.6l-0.4,0.8l-0.2-0.8
						c-0.3-1.5-0.5-1.9-0.5-2c-0.1-0.2-0.6-0.6-1.8-1.1c-1-0.5-1.9-0.7-2.4-0.7c-0.5,0-1.1,0.4-1.7,1.3c-0.5,0.7-0.9,1.6-1.2,2.6
						l-0.3,0.9l-0.3-0.9c-0.1-0.3-0.1-0.6-0.1-0.8c0-0.1,0-0.3,0.3-1.3c0.2-0.5,0.1-0.7,0.1-0.8c0,0-0.2-0.4-1.9-0.8
						C288.5,101.8,288,101.7,287.7,101.7z"/>
				</g>
				<g id="XMLID_353_">
					<path id="XMLID_357_" d="M316.3,116.2c0,0.2-0.1,0.6-0.4,1.1c-0.3,0.6-0.5,1.1-0.5,1.4c0,0.2,0,0.4,0,0.7
						c-0.1,0.6-0.2,0.9-0.5,1c-0.3,0.1-0.9-0.1-2-0.5c-1-0.5-1.6-0.8-1.7-1.1c-0.1-0.2,0-0.7,0.4-1.7c0.3-0.8,0.6-1.4,0.8-1.8
						c0.1-0.2,0.3-0.3,0.7-0.3c-0.1,0,0.5,0.1,1.8,0.4C315.8,115.5,316.2,115.8,316.3,116.2z"/>
					<path id="XMLID_354_" class="st5" d="M314.8,120.7c-0.3,0-0.9-0.1-1.9-0.6c-1.5-0.7-1.8-1-1.9-1.2c-0.1-0.2-0.1-0.6,0.4-1.9
						c0.3-0.8,0.6-1.4,0.9-1.8c0.1-0.2,0.3-0.3,0.6-0.4l0,0l0.3,0c0,0,0,0,0,0v0.3l0.1-0.2c0,0,0.3,0.1,1.7,0.3
						c0.9,0.2,1.4,0.5,1.5,1l0,0c0.1,0.3-0.1,0.7-0.4,1.3c-0.3,0.5-0.4,1-0.4,1.3c0,0.2,0,0.4,0,0.7c-0.1,0.7-0.3,1.1-0.7,1.3
						C315,120.7,314.9,120.7,314.8,120.7z M313.2,115.3c-0.3,0-0.3,0.1-0.4,0.2c-0.2,0.4-0.5,1-0.8,1.7c-0.5,1.1-0.4,1.4-0.4,1.4
						c0,0,0.2,0.3,1.6,0.9c1.4,0.6,1.7,0.5,1.7,0.5c0,0,0.2-0.1,0.3-0.8c0-0.3,0-0.5,0-0.6l0,0c0-0.4,0.2-0.9,0.5-1.6
						c0.3-0.6,0.3-0.9,0.3-0.9c-0.1-0.2-0.4-0.4-1.1-0.5C314,115.5,313.5,115.4,313.2,115.3z"/>
				</g>
				<g id="XMLID_344_">
					<path id="XMLID_350_" d="M331.6,104.5c0.5,0.9,0.7,2.1,0.7,3.5c0,1.9-0.4,3.9-1.1,6c-0.7,2-1.5,3.6-2.4,4.7
						c-0.1,0.3-0.2,0.5-0.2,0.6c-0.1,0.2-0.2,0.4-0.4,0.5c-0.3,0.2-0.7,0.3-1.4,0.4c-0.6,0-1.1-0.2-1.7-0.5c-0.1,0-0.5-0.4-1.4-1
						c0,0.1,0.1,0.4,0.2,0.7c0.1,0.2,0.1,0.4,0,0.5c-0.2,0.4-0.4,0.7-0.8,0.7c-0.5,0-1.3-0.1-2.5-0.5c-1.2-0.3-1.9-0.7-2-0.9
						c-0.1-0.2,0-0.5,0.3-1c0.1-0.2,0.1-0.6,0.1-1.2V97c0-0.1-0.1-0.3-0.3-0.5c-0.2-0.3-0.3-0.5-0.2-0.7c0.1-0.6,0.5-0.9,1.2-0.9
						c0.7,0,1.5,0.2,2.6,0.6c1.1,0.4,1.7,0.8,1.9,1.2c0.1,0.2,0,0.5-0.2,0.9c-0.2,0.5-0.3,0.8-0.4,1.1v4.9c1.6-1.6,2.9-2.3,3.9-2.2
						c0.7,0.1,1.4,0.4,2.2,1C330.5,102.9,331.2,103.6,331.6,104.5z M328.1,104.7c-0.8,0.3-1.6,0.9-2.5,1.8c-0.9,0.9-1.6,1.7-1.8,2.3
						v8c0.1,0.2,0.4,0.3,0.7,0.5c0.7,0.1,1.4-1.3,2.4-4.4c0.9-2.9,1.4-5.4,1.4-7.3C328.2,105.2,328.2,104.9,328.1,104.7z"/>
					<path id="XMLID_345_" class="st5" d="M323.1,120.9c-0.5,0-1.3-0.2-2.4-0.5c-1.7-0.5-2.1-0.8-2.2-1.1c-0.2-0.3-0.1-0.7,0.3-1.3
						c0,0,0.1-0.3,0.1-1.1V97c0,0,0-0.1-0.2-0.4c-0.2-0.3-0.3-0.6-0.3-0.9c0.1-0.8,0.7-1.2,1.5-1.2c0.7,0,1.6,0.2,2.7,0.6
						c1.2,0.4,1.8,0.8,2,1.3c0.1,0.3,0.1,0.6-0.2,1.2c-0.2,0.4-0.3,0.8-0.3,1v4.1c1.4-1.3,2.6-1.9,3.6-1.8c0.7,0.1,1.5,0.4,2.3,1.1
						c0.9,0.6,1.5,1.4,2,2.3c0.5,1,0.7,2.2,0.7,3.7c0,1.9-0.4,3.9-1.1,6.1c-0.7,2-1.5,3.6-2.4,4.8c-0.1,0.3-0.1,0.5-0.2,0.6l0,0
						c-0.1,0.3-0.2,0.5-0.4,0.7c-0.3,0.3-0.9,0.4-1.6,0.4h0c-0.6,0-1.3-0.2-1.9-0.6c0,0-0.3-0.2-0.7-0.5c0,0.2,0,0.3-0.1,0.5
						c-0.2,0.7-0.7,0.9-1,0.9C323.2,120.9,323.1,120.9,323.1,120.9z M319.8,95.1c-0.5,0-0.8,0.2-0.9,0.7c0,0.1,0,0.3,0.2,0.5
						c0.2,0.3,0.3,0.5,0.3,0.7v19.9c0,0.9-0.1,1.2-0.2,1.4c-0.3,0.6-0.3,0.7-0.3,0.7c0,0.1,0.3,0.4,1.9,0.8c1.4,0.4,2.1,0.5,2.3,0.4
						c0.1,0,0.4-0.1,0.5-0.5c0-0.1,0-0.2,0-0.3c-0.1-0.3-0.2-0.5-0.2-0.7l-0.1-0.7l0.6,0.4c1.2,0.9,1.3,1,1.3,1
						c0.5,0.3,1,0.5,1.5,0.5c0.7,0,1.1-0.2,1.2-0.3c0.1-0.1,0.2-0.2,0.3-0.4c0-0.1,0.1-0.3,0.2-0.6l0-0.1l0,0
						c0.9-1.1,1.7-2.7,2.4-4.7c0.7-2.1,1.1-4.1,1.1-5.9c0-1.4-0.2-2.5-0.7-3.4l0,0c-0.4-0.8-1-1.5-1.8-2.1c-0.7-0.6-1.4-0.9-2-1
						c-0.9-0.1-2.1,0.6-3.6,2.1l-0.5,0.5l0-5.6c0-0.3,0.2-0.7,0.4-1.2c0.3-0.6,0.2-0.7,0.2-0.7c-0.1-0.2-0.4-0.5-1.7-1
						C321.3,95.3,320.4,95.1,319.8,95.1z M324.6,117.6c-0.1,0-0.1,0-0.2,0l-0.1,0l0,0c-0.4-0.2-0.6-0.4-0.8-0.6l-0.1-0.1v-8.2l0-0.1
						c0.3-0.7,0.9-1.4,1.9-2.4c1-0.9,1.9-1.6,2.6-1.9l0.3-0.1l0.1,0.3c0.1,0.3,0.1,0.6,0.1,1c0,1.9-0.5,4.4-1.4,7.4
						C325.9,116.9,325.2,117.6,324.6,117.6z M324.1,116.6c0.1,0.1,0.2,0.2,0.5,0.4c0.2,0,0.8-0.4,2-4.1c0.9-2.9,1.3-5.3,1.3-7.2
						c0-0.2,0-0.4,0-0.5c-0.6,0.3-1.3,0.8-2.1,1.6c-0.9,0.8-1.5,1.6-1.7,2.1V116.6z"/>
				</g>
				<g id="XMLID_338_">
					<path id="XMLID_342_" d="M345.7,103.7c0.1,0.3,0,0.6-0.3,0.8c-0.2,0.1-0.5,0.2-0.7,0.4c-1.2,1.9-2.9,4.5-5.1,7.7
						c0,3.1,0,4.8,0,4.9c0,0.1,0.1,0.4,0.2,0.8c0.1,0.4,0.2,0.7,0.2,1c0,0.4-0.2,0.6-0.5,0.8c-0.2,0.1-0.5,0.1-0.9,0.1
						c-0.8,0-1.6-0.2-2.5-0.5c-1.1-0.4-1.7-0.9-1.7-1.5c0-0.2,0.1-0.5,0.2-0.9c0.2-0.4,0.2-0.7,0.2-1v-11.7
						c-0.2-1.1-0.3-1.7-0.3-1.7c0-0.6,0.3-1,0.8-1.2c0.2-0.1,0.5-0.1,0.9-0.1c0.7,0,1.4,0.1,2.2,0.3c0.8,0.2,1.2,0.5,1.3,0.7
						c0,0.1,0.1,0.2,0.1,0.3c0,0.1-0.1,0.6-0.4,1.4v1.4c0.5-0.8,0.9-1.7,1.4-2.5c0.6-1.1,1.1-1.6,1.4-1.7c0.4-0.1,1.1,0.2,2,0.8
						C345.2,102.9,345.6,103.4,345.7,103.7z"/>
					<path id="XMLID_339_" class="st5" d="M338.7,120.4c-0.8,0-1.7-0.2-2.6-0.5c-1.3-0.4-1.9-1-1.9-1.8c0-0.2,0.1-0.5,0.3-1
						c0.1-0.4,0.2-0.6,0.2-0.9v-11.7c-0.3-1.7-0.3-1.7-0.3-1.7c0-0.7,0.4-1.2,1-1.4c0.3-0.1,0.6-0.1,0.9-0.1c0.7,0,1.5,0.1,2.3,0.4
						c0.9,0.3,1.3,0.5,1.5,0.9c0.1,0.1,0.1,0.3,0.1,0.4c0,0.1,0,0.2-0.4,1.5v0.2c0.3-0.5,0.6-1,0.8-1.5c0.9-1.5,1.3-1.8,1.6-1.8
						c0.5-0.1,1.2,0.2,2.2,0.8c1,0.6,1.5,1.2,1.6,1.7l0,0c0.1,0.4-0.1,0.8-0.5,1.1l0,0c-0.2,0.1-0.4,0.2-0.6,0.3
						c-1.3,1.9-2.9,4.5-5,7.5c0,3.7,0,4.6,0,4.7c0,0,0,0.2,0.2,0.7c0.1,0.4,0.2,0.8,0.2,1.1c0,0.5-0.2,0.9-0.7,1
						C339.5,120.3,339.1,120.4,338.7,120.4z M336.4,101.8c-0.3,0-0.6,0-0.8,0.1c-0.4,0.1-0.6,0.4-0.6,0.9c0,0,0,0.3,0.3,1.7l0,0.1
						v11.7c0,0.3-0.1,0.7-0.3,1.1c-0.2,0.5-0.2,0.7-0.2,0.7c0,0.6,0.8,1,1.5,1.2c0.9,0.3,1.7,0.5,2.4,0.5c0.3,0,0.6,0,0.8-0.1
						c0.2-0.1,0.3-0.2,0.3-0.5c0-0.2-0.1-0.5-0.2-0.9c-0.2-0.6-0.2-0.7-0.2-0.8c0-0.1,0-0.2,0-4.9v-0.1l0-0.1
						c2.1-3.1,3.8-5.7,5.1-7.7l0-0.1l0.1,0c0.2-0.1,0.5-0.3,0.7-0.4c0.2-0.2,0.2-0.3,0.2-0.4c0-0.2-0.3-0.6-1.4-1.3
						c-1.1-0.7-1.6-0.8-1.8-0.7c0,0-0.3,0.1-1.2,1.5c-0.5,0.9-0.9,1.7-1.4,2.5l-0.6,1l0-2.7c0.4-1.1,0.4-1.3,0.4-1.3
						c0-0.1,0-0.1,0-0.1c0-0.1-0.2-0.3-1.2-0.6C337.7,101.9,337,101.8,336.4,101.8z"/>
				</g>
			</g>
		</g>
	</g>
</g>
</svg>
